<svg width="162" height="34" viewBox="0 0 162 34" fill="none" xmlns="http://www.w3.org/2000/svg">
<path fill-rule="evenodd" clip-rule="evenodd" d="M5 0C2.23858 0 0 2.23858 0 5V29C0 31.7614 2.23858 34 5 34H46C48.7614 34 51 31.7614 51 29V5C51 2.23858 48.7614 0 46 0H5ZM9.19318 7.63636H2.3125V28H7.72159V16.1477H7.88068L12.4148 27.8409H15.6761L20.2102 16.2273H20.3693V28H25.7784V7.63636H18.8977L14.1648 19.1705H13.9261L9.19318 7.63636ZM33.728 7.63636H27.5632L35.0405 21.5966V28H40.5291V21.5966L48.0064 7.63636H41.8416L37.8643 15.9091H37.7053L33.728 7.63636Z" fill="white"/>
<path d="M75.3239 14.2727H69.7159C69.6761 13.8087 69.5701 13.3878 69.3977 13.0099C69.232 12.6321 69 12.3073 68.7017 12.0355C68.41 11.7571 68.0554 11.545 67.6378 11.3991C67.2202 11.2467 66.7462 11.1705 66.2159 11.1705C65.2879 11.1705 64.5024 11.3958 63.8594 11.8466C63.223 12.2973 62.7391 12.9437 62.4077 13.7855C62.0829 14.6274 61.9205 15.6383 61.9205 16.8182C61.9205 18.0644 62.0862 19.1084 62.4176 19.9503C62.7557 20.7855 63.2429 21.4152 63.8793 21.8395C64.5156 22.2571 65.2813 22.4659 66.1761 22.4659C66.6866 22.4659 67.1439 22.4029 67.5483 22.277C67.9527 22.1444 68.304 21.9555 68.6023 21.7102C68.9006 21.465 69.1425 21.17 69.3281 20.8253C69.5204 20.474 69.6496 20.0795 69.7159 19.642L75.3239 19.6818C75.2576 20.5436 75.0156 21.4219 74.598 22.3168C74.1804 23.205 73.5871 24.027 72.8182 24.7827C72.0559 25.5317 71.1113 26.1349 69.9844 26.5923C68.8575 27.0497 67.5483 27.2784 66.0568 27.2784C64.1875 27.2784 62.5104 26.8774 61.0256 26.0753C59.5473 25.2732 58.3774 24.0933 57.5156 22.5355C56.6605 20.9777 56.233 19.072 56.233 16.8182C56.233 14.5511 56.6705 12.642 57.5455 11.0909C58.4205 9.53314 59.6004 8.35653 61.0852 7.56108C62.5701 6.759 64.2273 6.35795 66.0568 6.35795C67.3428 6.35795 68.526 6.53362 69.6065 6.88494C70.687 7.23627 71.6349 7.75 72.4503 8.42614C73.2656 9.09564 73.9219 9.92093 74.419 10.902C74.9162 11.883 75.2178 13.0066 75.3239 14.2727ZM97.5593 16.8182C97.5593 19.0852 97.1185 20.9976 96.2369 22.5554C95.3552 24.1065 94.1654 25.2831 92.6673 26.0852C91.1692 26.8807 89.4987 27.2784 87.6559 27.2784C85.7998 27.2784 84.1228 26.8774 82.6246 26.0753C81.1332 25.2666 79.9466 24.0866 79.065 22.5355C78.19 20.9777 77.7525 19.072 77.7525 16.8182C77.7525 14.5511 78.19 12.642 79.065 11.0909C79.9466 9.53314 81.1332 8.35653 82.6246 7.56108C84.1228 6.759 85.7998 6.35795 87.6559 6.35795C89.4987 6.35795 91.1692 6.759 92.6673 7.56108C94.1654 8.35653 95.3552 9.53314 96.2369 11.0909C97.1185 12.642 97.5593 14.5511 97.5593 16.8182ZM91.8718 16.8182C91.8718 15.5985 91.7094 14.571 91.3846 13.7358C91.0664 12.8939 90.5924 12.2576 89.9627 11.8267C89.3396 11.3892 88.5707 11.1705 87.6559 11.1705C86.7411 11.1705 85.9689 11.3892 85.3391 11.8267C84.716 12.2576 84.2421 12.8939 83.9173 13.7358C83.5991 14.571 83.44 15.5985 83.44 16.8182C83.44 18.0379 83.5991 19.0687 83.9173 19.9105C84.2421 20.7457 84.716 21.3821 85.3391 21.8196C85.9689 22.2505 86.7411 22.4659 87.6559 22.4659C88.5707 22.4659 89.3396 22.2505 89.9627 21.8196C90.5924 21.3821 91.0664 20.7457 91.3846 19.9105C91.7094 19.0687 91.8718 18.0379 91.8718 16.8182ZM104.122 27H98.1559L104.877 6.63636H112.434L119.156 27H113.19L108.735 12.2443H108.576L104.122 27ZM103.008 18.9659H114.224V23.1023H103.008V18.9659ZM139.172 14.2727H133.564C133.524 13.8087 133.418 13.3878 133.245 13.0099C133.08 12.6321 132.848 12.3073 132.549 12.0355C132.258 11.7571 131.903 11.545 131.485 11.3991C131.068 11.2467 130.594 11.1705 130.064 11.1705C129.136 11.1705 128.35 11.3958 127.707 11.8466C127.071 12.2973 126.587 12.9437 126.255 13.7855C125.931 14.6274 125.768 15.6383 125.768 16.8182C125.768 18.0644 125.934 19.1084 126.265 19.9503C126.603 20.7855 127.091 21.4152 127.727 21.8395C128.363 22.2571 129.129 22.4659 130.024 22.4659C130.534 22.4659 130.992 22.4029 131.396 22.277C131.8 22.1444 132.152 21.9555 132.45 21.7102C132.748 21.465 132.99 21.17 133.176 20.8253C133.368 20.474 133.497 20.0795 133.564 19.642L139.172 19.6818C139.105 20.5436 138.863 21.4219 138.446 22.3168C138.028 23.205 137.435 24.027 136.666 24.7827C135.904 25.5317 134.959 26.1349 133.832 26.5923C132.705 27.0497 131.396 27.2784 129.904 27.2784C128.035 27.2784 126.358 26.8774 124.873 26.0753C123.395 25.2732 122.225 24.0933 121.363 22.5355C120.508 20.9777 120.081 19.072 120.081 16.8182C120.081 14.5511 120.518 12.642 121.393 11.0909C122.268 9.53314 123.448 8.35653 124.933 7.56108C126.418 6.759 128.075 6.35795 129.904 6.35795C131.19 6.35795 132.374 6.53362 133.454 6.88494C134.535 7.23627 135.483 7.75 136.298 8.42614C137.113 9.09564 137.77 9.92093 138.267 10.902C138.764 11.883 139.065 13.0066 139.172 14.2727ZM141.68 27V6.63636H147.208V14.5909H154.526V6.63636H160.055V27H154.526V19.0455H147.208V27H141.68Z" fill="white"/>
</svg>
