<svg width="51" height="34" viewBox="0 0 51 34" fill="none" xmlns="http://www.w3.org/2000/svg">
<rect x="2" y="6" width="46" height="23" fill="#333333"/>
<path fill-rule="evenodd" clip-rule="evenodd" d="M5 0C2.23858 0 0 2.23858 0 5V29C0 31.7614 2.23858 34 5 34H46C48.7614 34 51 31.7614 51 29V5C51 2.23858 48.7614 0 46 0H5ZM9.19318 7.63636H2.3125V28H7.72159V16.1477H7.88068L12.4148 27.8409H15.6761L20.2102 16.2273H20.3693V28H25.7784V7.63636H18.8977L14.1648 19.1705H13.9261L9.19318 7.63636ZM33.728 7.63636H27.5632L35.0405 21.5966V28H40.5291V21.5966L48.0064 7.63636H41.8416L37.8643 15.9091H37.7053L33.728 7.63636Z" fill="white"/>
</svg>
